<?xml version="1.0" encoding="utf-8"?>
<!-- Generator: Adobe Illustrator 16.0.0, SVG Export Plug-In . SVG Version: 6.00 Build 0)  -->
<!DOCTYPE svg PUBLIC "-//W3C//DTD SVG 1.1//EN" "http://www.w3.org/Graphics/SVG/1.1/DTD/svg11.dtd">
<svg version="1.1" id="Layer_1" xmlns="http://www.w3.org/2000/svg" xmlns:xlink="http://www.w3.org/1999/xlink" x="0px" y="0px"
	 width="29.946px" height="29.945px" viewBox="0 0 29.946 29.945" style="enable-background:new 0 0 29.946 29.945;"
	 xml:space="preserve">
<style type="text/css">
<![CDATA[
	.st0{display:inline;fill:#E8E5E2;}
	.st1{fill:#E8E5E2;}
	.st2{display:inline;}
	.st3{display:none;}
]]>
</style>
<g id="behance_3_" class="st3">
	<rect x="17.602" y="10.273" class="st0" width="4.387" height="1.254"/>
	<path class="st0" d="M19.922,12.366c-4.052,0-4.046,4.03-4.046,4.03s-0.281,3.988,4.046,3.988c0,0,3.607,0.227,3.607-2.844h-1.855
		c0,0,0.061,1.201-1.688,1.201c0,0-1.857,0.114-1.857-1.765h5.463C23.592,16.978,24.188,12.366,19.922,12.366z M21.573,15.537H18.11
		c0,0,0.229-1.626,1.854-1.626C21.592,13.911,21.573,15.537,21.573,15.537z"/>
	<path class="st0" d="M13.485,14.459c0,0,1.609-0.12,1.609-2.005c0-1.886-1.315-2.807-2.982-2.807H9.043H8.954H6.576v10.524h2.378
		h0.089h3.068c0,0,3.347,0.113,3.347-3.104C15.458,17.068,15.604,14.459,13.485,14.459z M9.021,11.527h2.695h0.395
		c0,0,0.745,0.015,0.745,1.11c0,1.095-0.439,1.27-0.935,1.27h-2.9V11.527z M11.957,18.303c-0.083,0.002-0.148-0.01-0.197-0.01H9.021
		v-2.756h3.09c0,0,1.109-0.041,1.109,1.422C13.221,18.191,12.392,18.293,11.957,18.303z"/>
	<path class="st0" d="M14.973,0C6.702,0,0,6.704,0,14.973c0,8.27,6.702,14.973,14.973,14.973c8.268,0,14.973-6.703,14.973-14.973
		C29.946,6.704,23.241,0,14.973,0z M24.895,24.896c-2.65,2.65-6.176,4.109-9.922,4.109c-3.749,0-7.273-1.459-9.924-4.109
		c-2.648-2.65-4.111-6.176-4.111-9.924c0-3.749,1.462-7.272,4.111-9.923c2.651-2.65,6.176-4.11,9.924-4.11
		c3.747,0,7.272,1.46,9.922,4.11s4.111,6.174,4.111,9.923C29.006,18.721,27.545,22.246,24.895,24.896z"/>
</g>
<g id="dribble_3_">
	<path class="st1" d="M14.973,0C6.702,0,0,6.703,0,14.974c0,8.269,6.702,14.972,14.973,14.972c8.268,0,14.973-6.703,14.973-14.972
		C29.946,6.703,23.241,0,14.973,0z M24.895,24.895c-2.65,2.65-6.176,4.111-9.922,4.111c-3.749,0-7.273-1.461-9.924-4.111
		c-2.648-2.648-4.111-6.174-4.111-9.921c0-3.749,1.462-7.272,4.111-9.924c2.651-2.651,6.176-4.11,9.924-4.11
		c3.747,0,7.272,1.459,9.922,4.11s4.111,6.175,4.111,9.924C29.006,18.721,27.545,22.246,24.895,24.895z"/>
	<path class="st1" d="M14.973,6.812c-4.552,0-8.241,3.69-8.241,8.242c0,4.55,3.689,8.241,8.241,8.241
		c4.551,0,8.241-3.691,8.241-8.241C23.213,10.502,19.524,6.812,14.973,6.812z M20.424,10.56c0.99,1.206,1.592,2.744,1.607,4.421
		c-0.104-0.021-2.496-0.535-4.926-0.229c-0.053-0.122-0.104-0.243-0.154-0.367c-0.145-0.345-0.307-0.688-0.467-1.025
		C19.274,12.219,20.411,10.578,20.424,10.56z M14.96,7.98c1.79,0,3.425,0.667,4.673,1.765c-0.018,0.025-1.025,1.56-3.696,2.561
		c-1.207-2.221-2.54-3.984-2.646-4.127C13.829,8.05,14.387,7.98,14.96,7.98z M11.943,8.656c0.094,0.125,1.4,1.9,2.625,4.076
		c-3.396,0.901-6.343,0.865-6.529,0.862C8.498,11.404,9.97,9.587,11.943,8.656z M7.886,15.054c0-0.076,0.004-0.149,0.005-0.226
		c0.126,0.004,3.621,0.083,7.264-1.009c0.201,0.398,0.396,0.801,0.574,1.203c-0.094,0.027-0.186,0.056-0.281,0.086
		c-3.813,1.234-5.752,4.667-5.752,4.667s0.002,0.002,0.002,0.005C8.572,18.527,7.886,16.87,7.886,15.054z M14.96,22.125
		c-1.64,0-3.146-0.563-4.347-1.498c0.013-0.027,1.376-2.961,5.549-4.416c0.018-0.006,0.031-0.01,0.049-0.016
		c0.994,2.586,1.406,4.752,1.51,5.371C16.872,21.928,15.939,22.125,14.96,22.125z M18.913,20.92
		c-0.072-0.427-0.449-2.502-1.377-5.052c2.287-0.366,4.262,0.26,4.408,0.308C21.629,18.146,20.5,19.849,18.913,20.92z"/>
</g>
<g class="st3">
	<g id="instagram_3_" class="st2">
		<path class="st1" d="M14.973,0C6.703,0,0,6.705,0,14.974c0,8.271,6.702,14.972,14.973,14.972c8.269,0,14.973-6.701,14.973-14.972
			C29.946,6.705,23.242,0,14.973,0z M24.896,24.896c-2.649,2.652-6.176,4.111-9.923,4.111c-3.748,0-7.272-1.459-9.924-4.111
			c-2.648-2.65-4.111-6.175-4.111-9.923s1.463-7.271,4.111-9.923c2.651-2.65,6.176-4.109,9.924-4.109
			c3.747,0,7.273,1.459,9.923,4.109c2.649,2.651,4.11,6.175,4.11,9.923S27.545,22.246,24.896,24.896z"/>
	</g>
	<g class="st2">
		<path class="st1" d="M14.974,11.268c-2.012,0-3.679,1.637-3.679,3.678c0,2.04,1.638,3.678,3.679,3.678
			c2.04,0,3.679-1.666,3.679-3.678S16.986,11.268,14.974,11.268z M14.974,17.301c-1.293,0-2.356-1.063-2.356-2.355
			s1.063-2.357,2.356-2.357s2.356,1.064,2.356,2.357S16.267,17.301,14.974,17.301z"/>
		<circle class="st1" cx="18.796" cy="11.181" r="0.833"/>
		<path class="st1" d="M20.951,9.025c-0.747-0.775-1.81-1.179-3.016-1.179h-5.921c-2.5,0-4.167,1.667-4.167,4.167v5.891
			c0,1.236,0.402,2.299,1.207,3.075c0.775,0.747,1.811,1.122,2.989,1.122h5.862c1.235,0,2.27-0.402,3.017-1.122
			c0.775-0.747,1.178-1.811,1.178-3.046v-5.92C22.1,10.807,21.698,9.772,20.951,9.025z M20.778,17.934
			c0,0.891-0.258,1.609-0.774,2.098c-0.518,0.488-1.236,0.747-2.098,0.747h-5.862c-0.862,0-1.581-0.259-2.099-0.747
			c-0.517-0.518-0.775-1.235-0.775-2.127v-5.891c0-0.861,0.259-1.58,0.775-2.098c0.489-0.488,1.236-0.746,2.099-0.746h5.919
			c0.862,0,1.58,0.258,2.098,0.775c0.488,0.518,0.776,1.234,0.776,2.068v5.92H20.778z"/>
	</g>
</g>
</svg>
