<?xml version="1.0" encoding="utf-8"?>
<!-- Generator: Adobe Illustrator 16.0.0, SVG Export Plug-In . SVG Version: 6.00 Build 0)  -->
<!DOCTYPE svg PUBLIC "-//W3C//DTD SVG 1.1//EN" "http://www.w3.org/Graphics/SVG/1.1/DTD/svg11.dtd">
<svg version="1.1" id="Layer_1" xmlns="http://www.w3.org/2000/svg" xmlns:xlink="http://www.w3.org/1999/xlink" x="0px" y="0px"
	 width="14.253px" height="14.255px" viewBox="7.846 7.846 14.253 14.255"
	 style="enable-background:new 7.846 7.846 14.253 14.255;" xml:space="preserve">
<style type="text/css">
<![CDATA[
	.st0{display:inline;fill:#E8E5E2;}
	.st1{fill:#EF4136;}
	.st2{display:none;}
]]>
</style>
<g id="behance_3_" class="st2">
	<rect x="17.602" y="10.273" class="st0" width="4.387" height="1.254"/>
	<path class="st0" d="M19.922,12.366c-4.052,0-4.046,4.029-4.046,4.029s-0.28,3.987,4.046,3.987c0,0,3.606,0.228,3.606-2.844h-1.854
		c0,0,0.062,1.201-1.688,1.201c0,0-1.856,0.113-1.856-1.766h5.463C23.592,16.978,24.188,12.366,19.922,12.366z M21.573,15.537H18.11
		c0,0,0.229-1.626,1.854-1.626C21.592,13.911,21.573,15.537,21.573,15.537z"/>
	<path class="st0" d="M13.485,14.459c0,0,1.609-0.12,1.609-2.005c0-1.887-1.315-2.808-2.982-2.808H9.043H8.954H6.576V20.17h2.378
		h0.089h3.067c0,0,3.348,0.113,3.348-3.104C15.458,17.068,15.604,14.459,13.485,14.459z M9.021,11.527h2.694h0.396
		c0,0,0.745,0.016,0.745,1.11s-0.438,1.271-0.936,1.271H9.021V11.527z M11.957,18.302c-0.083,0.003-0.147-0.01-0.197-0.01H9.021
		v-2.756h3.09c0,0,1.109-0.041,1.109,1.422C13.221,18.191,12.392,18.293,11.957,18.302z"/>
	<path class="st0" d="M14.973,0C6.702,0,0,6.704,0,14.973c0,8.27,6.702,14.973,14.974,14.973c8.269,0,14.973-6.702,14.973-14.973
		C29.946,6.703,23.241,0,14.973,0z M24.895,24.896c-2.649,2.649-6.176,4.108-9.922,4.108c-3.749,0-7.272-1.459-9.925-4.108
		c-2.647-2.649-4.11-6.177-4.11-9.924c0-3.749,1.462-7.271,4.11-9.924c2.651-2.649,6.177-4.109,9.925-4.109
		c3.747,0,7.271,1.46,9.922,4.109c2.649,2.65,4.11,6.175,4.11,9.924S27.545,22.246,24.895,24.896z"/>
</g>
<g id="dribble_3_" class="st2">
	<path class="st0" d="M14.973,0C6.702,0,0,6.703,0,14.974c0,8.27,6.702,14.972,14.974,14.972c8.269,0,14.973-6.702,14.973-14.972
		C29.946,6.703,23.241,0,14.973,0z M24.895,24.895c-2.649,2.649-6.176,4.11-9.922,4.11c-3.749,0-7.272-1.461-9.925-4.11
		c-2.647-2.647-4.11-6.174-4.11-9.921c0-3.749,1.462-7.271,4.11-9.925C7.7,2.399,11.225,0.94,14.973,0.94
		c3.747,0,7.271,1.459,9.922,4.109c2.649,2.651,4.11,6.176,4.11,9.925C29.006,18.721,27.545,22.246,24.895,24.895z"/>
	<path class="st0" d="M14.973,6.812c-4.553,0-8.241,3.689-8.241,8.242c0,4.55,3.688,8.24,8.241,8.24c4.551,0,8.24-3.69,8.24-8.24
		C23.213,10.502,19.524,6.812,14.973,6.812z M20.424,10.56c0.99,1.206,1.593,2.744,1.606,4.421
		c-0.104-0.021-2.495-0.535-4.926-0.229c-0.054-0.122-0.104-0.243-0.153-0.367c-0.146-0.345-0.308-0.688-0.468-1.024
		C19.274,12.219,20.411,10.578,20.424,10.56z M14.96,7.98c1.79,0,3.425,0.667,4.673,1.766c-0.018,0.024-1.024,1.561-3.695,2.562
		c-1.207-2.222-2.54-3.983-2.646-4.127C13.829,8.05,14.387,7.98,14.96,7.98z M11.943,8.656c0.095,0.125,1.399,1.899,2.625,4.075
		c-3.396,0.9-6.343,0.865-6.528,0.861C8.498,11.404,9.97,9.587,11.943,8.656z M7.886,15.054c0-0.076,0.004-0.148,0.005-0.227
		c0.126,0.004,3.621,0.083,7.264-1.01c0.201,0.397,0.396,0.802,0.574,1.203c-0.095,0.026-0.187,0.057-0.28,0.086
		c-3.813,1.233-5.753,4.667-5.753,4.667s0.003,0.002,0.003,0.005C8.572,18.527,7.886,16.87,7.886,15.054z M14.96,22.125
		c-1.641,0-3.146-0.563-4.348-1.498c0.014-0.026,1.376-2.961,5.55-4.416c0.019-0.006,0.03-0.01,0.049-0.017
		c0.994,2.587,1.406,4.752,1.511,5.371C16.872,21.928,15.939,22.125,14.96,22.125z M18.913,20.92
		c-0.072-0.427-0.449-2.502-1.377-5.052c2.287-0.366,4.262,0.26,4.407,0.308C21.629,18.146,20.5,19.849,18.913,20.92z"/>
</g>
<g>
	<g>
		<path class="st1" d="M14.974,11.268c-2.013,0-3.68,1.638-3.68,3.678s1.639,3.679,3.68,3.679c2.04,0,3.679-1.666,3.679-3.679
			C18.653,12.934,16.986,11.268,14.974,11.268z M14.974,17.301c-1.293,0-2.355-1.063-2.355-2.354c0-1.291,1.063-2.357,2.355-2.357
			s2.355,1.063,2.355,2.357C17.33,16.24,16.267,17.301,14.974,17.301z"/>
		<circle class="st1" cx="18.796" cy="11.181" r="0.833"/>
		<path class="st1" d="M20.951,9.025c-0.747-0.774-1.811-1.179-3.017-1.179h-5.921c-2.5,0-4.167,1.667-4.167,4.167v5.891
			c0,1.236,0.401,2.3,1.207,3.075c0.774,0.747,1.812,1.122,2.988,1.122h5.861c1.235,0,2.271-0.401,3.018-1.122
			c0.774-0.747,1.179-1.812,1.179-3.046v-5.92C22.1,10.807,21.698,9.772,20.951,9.025z M20.778,17.934
			c0,0.892-0.258,1.608-0.773,2.099c-0.519,0.487-1.235,0.746-2.099,0.746h-5.861c-0.861,0-1.581-0.259-2.1-0.746
			c-0.517-0.519-0.774-1.235-0.774-2.127v-5.892c0-0.861,0.26-1.58,0.774-2.099c0.489-0.488,1.236-0.746,2.1-0.746h5.919
			c0.862,0,1.58,0.258,2.099,0.774c0.487,0.519,0.775,1.234,0.775,2.068v5.92L20.778,17.934L20.778,17.934z"/>
	</g>
</g>
</svg>
